<svg xmlns="http://www.w3.org/2000/svg" viewBox="0 0 605.86 180.5"><defs><style>.cls-1{fill:#005a97;}</style></defs><title>Asset 4 1</title><g id="Layer_2" data-name="Layer 2"><g id="Layer_1-2" data-name="Layer 1"><path class="cls-1" d="M599.86,6V122.22a25.51,25.51,0,0,1-25.51,25.51h0V31.51A25.51,25.51,0,0,1,599.86,6h0m6-6h-6a31.55,31.55,0,0,0-31.51,31.51V153.73h6a31.55,31.55,0,0,0,31.51-31.51V0Z"/><path class="cls-1" d="M462.38,62.69A38.27,38.27,0,0,1,500.65,101v46.77H452.46v-2.89a22.62,22.62,0,0,1,22.62-22.62h.05V101a12.76,12.76,0,0,0-25.51,0v46.77H379.08c-4,11.9-14.26,25.51-40,25.51-45.75,0-42.52-43-42.52-43V91h2.84a22.68,22.68,0,0,0,22.68-22.68h22.68V91H322.06v41.83a14.86,14.86,0,0,0,14.86,14.86h4.3a14.86,14.86,0,0,0,14.86-14.82V122.22h0v-34h0a25.51,25.51,0,0,1,25.51-25.51v59.53h8.5v-34a25.51,25.51,0,0,1,25.51-25.51v59.53h8.5V101a38.27,38.27,0,0,1,38.27-38.27h0m0-6a44.34,44.34,0,0,0-40.77,27v-27h-6a31.55,31.55,0,0,0-28,17.09V56.69h-6a31.56,31.56,0,0,0-30.85,25.07V62.36H316.06v6A16.7,16.7,0,0,1,299.39,85h-8.84v45c-.15,2.57-.75,21.56,12,35.33,8.52,9.18,20.8,13.84,36.5,13.84,13,0,23.69-3.22,31.84-9.56a40.73,40.73,0,0,0,12.27-16H506.65V101a44.32,44.32,0,0,0-44.27-44.27Zm-6.76,67.18V101a6.76,6.76,0,0,1,13.51,0v15.88a28.58,28.58,0,0,0-13.51,7ZM328.06,97h22v35.87a8.87,8.87,0,0,1-8.86,8.82h-4.3a8.87,8.87,0,0,1-8.86-8.86V97Z"/><path class="cls-1" d="M412.77,153.73v22.68H390.09V153.73h22.68m4-4H386.09v30.68h30.68V149.73Z"/><path class="cls-1" d="M439.7,153.73v22.68H417V153.73H439.7m4-4H413v30.68H443.7V149.73Z"/><path class="cls-1" d="M101.06,153.82V176.5H78.38V153.82h22.68m4-4H74.38V180.5h30.68V149.82Z"/><path class="cls-1" d="M128,153.82V176.5H105.31V153.82H128m4-4H101.31V180.5H132V149.82Z"/><path class="cls-1" d="M81.12,68.36V91H58.44V68.36H81.12m6-6H52.44V97H87.12V62.36Z"/><path class="cls-1" d="M152,62.69v47.65c0,.66-.07,7.3-.17,7.94,0,8.74-8.32,29.46-33.1,29.46H31.51A25.51,25.51,0,0,1,6,122.22V91H8.83A22.68,22.68,0,0,0,31.51,68.36H54.19V91H31.51v22.68A8.51,8.51,0,0,0,40,122.22H92.46v-34A25.51,25.51,0,0,1,118,62.69h0v59.53c4.7,0,8.5-4.81,8.5-9.5V88.2A25.51,25.51,0,0,1,152,62.69h0m6-6h-6a31.55,31.55,0,0,0-28,17.09V56.69h-6A31.55,31.55,0,0,0,86.46,88.2v28H40a2.51,2.51,0,0,1-2.51-2.51V97H60.19V62.36H25.51v6A16.7,16.7,0,0,1,8.83,85H0v37.18a31.55,31.55,0,0,0,31.51,31.51h87.2c15.88,0,25.33-7.41,30.46-13.63,6.31-7.64,8.59-16.4,8.63-21.67.15-2.38.17-8,.17-8.09V56.69Z"/><path class="cls-1" d="M186,6V122.22c4.7,0,8.5-4.81,8.5-9.5V88.2A25.51,25.51,0,0,1,220,62.69h0v47.65c0,.66-.07,7.3-.17,7.94a16.31,16.31,0,0,1-.55,3.94H220c4.7,0,8.5-4.81,8.5-9.5V88.2A25.51,25.51,0,0,1,254,62.69h0v47.65c0,.66-.07,7.3-.17,7.94a16.3,16.3,0,0,1-.55,3.94H254c4.7,0,8.5-4.81,8.5-9.5V88.2A25.51,25.51,0,0,1,288,62.69h0v47.65c0,.66-.07,7.3-.17,7.94,0,8.74-10.2,28.24-38.1,29.46h-1.42v-15.5c-5.64,7.56-16,14.78-32.6,15.5h-1.42v-15.5c-5.64,7.56-16,14.78-32.6,15.5H160.49V31.51A25.51,25.51,0,0,1,186,6h0m6-6h-6a31.55,31.55,0,0,0-31.51,31.51V153.73H182c11.61-.51,20.18-3.89,26.34-7.88v7.88H216c11.61-.51,20.18-3.89,26.34-7.88v7.88H250c17.29-.75,27.77-7.86,33.52-13.69,7.53-7.64,10.26-16.13,10.32-21.61.15-2.38.17-8,.17-8.09V56.69h-6a31.55,31.55,0,0,0-28,17.09V56.69h-6a31.55,31.55,0,0,0-28,17.09V56.69h-6a31.55,31.55,0,0,0-28,17.09V0Z"/><path class="cls-1" d="M540.33,62.69A25.51,25.51,0,0,1,565.84,88.2v34a25.51,25.51,0,0,1-25.51,25.51H509.15a25.51,25.51,0,0,1,25.51-25.51h-2.84a8.5,8.5,0,0,0,8.5-8.49v-17a8.5,8.5,0,0,0-8.48-8.49h-22.7c13.51-5.56,12.36-18.27,12.49-25.51h18.69m0-6H521.64a6,6,0,0,0-6,5.89c0,.61,0,1.26,0,1.95,0,8.51-.67,14.79-8.76,18.12a6,6,0,0,0,2.28,11.55h22.7a2.51,2.51,0,0,1,2.48,2.5v17a2.51,2.51,0,0,1-2.5,2.49,6,6,0,0,0-2.14.39,31.56,31.56,0,0,0-26.54,31.12,6,6,0,0,0,6,6h31.18a31.55,31.55,0,0,0,31.51-31.51v-34a31.55,31.55,0,0,0-31.51-31.51Z"/><rect class="cls-1" x="35.76" y="94.93" width="52.95" height="23.03"/><path class="cls-1" d="M326.82,94.93h25a0,0,0,0,1,0,0v37.3a11,11,0,0,1-11,11h-3a11,11,0,0,1-11-11V94.93a0,0,0,0,1,0,0Z"/><path class="cls-1" d="M452.16,132.44H454c0-6.83,11.54-12.38,18.38-12.38V101A10,10,0,0,0,462.46,91h-.35a10,10,0,0,0-9.95,9.95Z"/><path class="cls-1" d="M503.16,140.94h4.38c0-12.63,16.24-22.88,28.88-22.88V91H503.16Z"/><rect class="cls-1" x="515.59" y="56.7" width="5.9" height="10.6"/><rect class="cls-1" x="505.55" y="152.54" width="4.8" height="1.19"/></g></g></svg>